<mxfile host="app.diagrams.net" modified="2021-06-30T03:04:50.965Z" agent="5.0 (Macintosh; Intel Mac OS X 10_15_7) AppleWebKit/537.36 (KHTML, like Gecko) Chrome/91.0.4472.77 Safari/537.36" etag="cW1Txh6i21RnhyyOS0Dp" version="14.8.2" type="github">
  <diagram id="th2TBvmeSx87468O9NcA" name="第 1 页">
    <mxGraphModel dx="946" dy="1689" grid="1" gridSize="10" guides="1" tooltips="1" connect="1" arrows="1" fold="1" page="1" pageScale="1" pageWidth="827" pageHeight="1169" math="0" shadow="0">
      <root>
        <mxCell id="0" />
        <mxCell id="1" parent="0" />
        <mxCell id="X2EXVFLk4f0aDlaed467-1" value="" style="endArrow=classic;html=1;strokeColor=#B3B3B3;strokeWidth=3;endSize=3;endFill=1;" parent="1" edge="1">
          <mxGeometry width="50" height="50" relative="1" as="geometry">
            <mxPoint x="560" y="120" as="sourcePoint" />
            <mxPoint x="60" y="120" as="targetPoint" />
          </mxGeometry>
        </mxCell>
        <mxCell id="X2EXVFLk4f0aDlaed467-3" value="" style="endArrow=classic;html=1;strokeColor=#B3B3B3;strokeWidth=3;endSize=4;endFill=1;" parent="1" edge="1">
          <mxGeometry width="50" height="50" relative="1" as="geometry">
            <mxPoint x="80" y="140" as="sourcePoint" />
            <mxPoint x="350" y="140" as="targetPoint" />
          </mxGeometry>
        </mxCell>
        <mxCell id="X2EXVFLk4f0aDlaed467-5" value="" style="endArrow=classic;html=1;strokeColor=#B3B3B3;strokeWidth=3;endSize=3;endFill=1;" parent="1" edge="1">
          <mxGeometry width="50" height="50" relative="1" as="geometry">
            <mxPoint x="730" y="340" as="sourcePoint" />
            <mxPoint x="80" y="340" as="targetPoint" />
          </mxGeometry>
        </mxCell>
        <mxCell id="X2EXVFLk4f0aDlaed467-7" value="" style="endArrow=classic;html=1;strokeColor=#B3B3B3;strokeWidth=3;endSize=4;endFill=1;" parent="1" edge="1">
          <mxGeometry width="50" height="50" relative="1" as="geometry">
            <mxPoint x="60" y="360" as="sourcePoint" />
            <mxPoint x="730" y="360" as="targetPoint" />
          </mxGeometry>
        </mxCell>
        <mxCell id="X2EXVFLk4f0aDlaed467-13" value="" style="endArrow=classic;html=1;strokeColor=#B3B3B3;strokeWidth=3;endSize=3;endFill=1;" parent="1" edge="1">
          <mxGeometry width="50" height="50" relative="1" as="geometry">
            <mxPoint x="350" y="-60" as="sourcePoint" />
            <mxPoint x="350" y="580" as="targetPoint" />
          </mxGeometry>
        </mxCell>
        <mxCell id="X2EXVFLk4f0aDlaed467-15" value="" style="endArrow=classic;html=1;strokeColor=#B3B3B3;strokeWidth=3;endSize=3;endFill=1;" parent="1" edge="1">
          <mxGeometry width="50" height="50" relative="1" as="geometry">
            <mxPoint x="370" y="560" as="sourcePoint" />
            <mxPoint x="370" y="-40" as="targetPoint" />
          </mxGeometry>
        </mxCell>
        <mxCell id="X2EXVFLk4f0aDlaed467-18" value="" style="endArrow=classic;html=1;strokeColor=#B3B3B3;strokeWidth=3;endSize=3;endFill=1;" parent="1" edge="1">
          <mxGeometry width="50" height="50" relative="1" as="geometry">
            <mxPoint x="59" y="-60" as="sourcePoint" />
            <mxPoint x="59" y="360" as="targetPoint" />
          </mxGeometry>
        </mxCell>
        <mxCell id="X2EXVFLk4f0aDlaed467-19" value="" style="endArrow=classic;html=1;strokeColor=#B3B3B3;strokeWidth=3;endSize=3;endFill=1;" parent="1" edge="1">
          <mxGeometry width="50" height="50" relative="1" as="geometry">
            <mxPoint x="80" y="340" as="sourcePoint" />
            <mxPoint x="80" y="140" as="targetPoint" />
          </mxGeometry>
        </mxCell>
        <mxCell id="X2EXVFLk4f0aDlaed467-22" value="" style="endArrow=classic;html=1;strokeColor=#B3B3B3;strokeWidth=3;endSize=3;endFill=1;" parent="1" edge="1">
          <mxGeometry width="50" height="50" relative="1" as="geometry">
            <mxPoint x="750" y="-60" as="sourcePoint" />
            <mxPoint x="60" y="-60" as="targetPoint" />
          </mxGeometry>
        </mxCell>
        <mxCell id="X2EXVFLk4f0aDlaed467-23" value="" style="endArrow=classic;html=1;strokeColor=#B3B3B3;strokeWidth=3;endSize=4;endFill=1;" parent="1" edge="1">
          <mxGeometry width="50" height="50" relative="1" as="geometry">
            <mxPoint x="370" y="-40" as="sourcePoint" />
            <mxPoint x="730" y="-40" as="targetPoint" />
          </mxGeometry>
        </mxCell>
        <mxCell id="X2EXVFLk4f0aDlaed467-25" value="" style="endArrow=classic;html=1;strokeColor=#B3B3B3;strokeWidth=3;endSize=3;endFill=1;" parent="1" edge="1">
          <mxGeometry width="50" height="50" relative="1" as="geometry">
            <mxPoint x="727" y="-40" as="sourcePoint" />
            <mxPoint x="727" y="560" as="targetPoint" />
          </mxGeometry>
        </mxCell>
        <mxCell id="X2EXVFLk4f0aDlaed467-26" value="" style="endArrow=classic;html=1;strokeColor=#B3B3B3;strokeWidth=3;endSize=3;endFill=1;" parent="1" edge="1">
          <mxGeometry width="50" height="50" relative="1" as="geometry">
            <mxPoint x="748" y="580" as="sourcePoint" />
            <mxPoint x="748" y="-60" as="targetPoint" />
          </mxGeometry>
        </mxCell>
        <mxCell id="X2EXVFLk4f0aDlaed467-28" value="" style="endArrow=classic;html=1;strokeColor=#B3B3B3;strokeWidth=3;endSize=4;endFill=1;" parent="1" edge="1">
          <mxGeometry width="50" height="50" relative="1" as="geometry">
            <mxPoint x="350" y="577" as="sourcePoint" />
            <mxPoint x="750" y="577" as="targetPoint" />
          </mxGeometry>
        </mxCell>
        <mxCell id="X2EXVFLk4f0aDlaed467-29" value="" style="endArrow=classic;html=1;strokeColor=#B3B3B3;strokeWidth=3;endSize=3;endFill=1;" parent="1" edge="1">
          <mxGeometry width="50" height="50" relative="1" as="geometry">
            <mxPoint x="730" y="557" as="sourcePoint" />
            <mxPoint x="370" y="557" as="targetPoint" />
          </mxGeometry>
        </mxCell>
        <mxCell id="X2EXVFLk4f0aDlaed467-8" value="" style="ellipse;whiteSpace=wrap;html=1;aspect=fixed;" parent="1" vertex="1">
          <mxGeometry x="350" y="555" width="20" height="20" as="geometry" />
        </mxCell>
        <mxCell id="X2EXVFLk4f0aDlaed467-32" value="" style="endArrow=classic;html=1;strokeColor=#B3B3B3;strokeWidth=3;endSize=3;endFill=1;" parent="1" edge="1">
          <mxGeometry width="50" height="50" relative="1" as="geometry">
            <mxPoint x="560" y="560" as="sourcePoint" />
            <mxPoint x="560" y="120" as="targetPoint" />
          </mxGeometry>
        </mxCell>
        <mxCell id="X2EXVFLk4f0aDlaed467-34" value="" style="ellipse;whiteSpace=wrap;html=1;aspect=fixed;" parent="1" vertex="1">
          <mxGeometry x="540" y="556" width="20" height="20" as="geometry" />
        </mxCell>
        <mxCell id="X2EXVFLk4f0aDlaed467-35" value="" style="ellipse;whiteSpace=wrap;html=1;aspect=fixed;" parent="1" vertex="1">
          <mxGeometry x="726" y="556" width="20" height="20" as="geometry" />
        </mxCell>
        <mxCell id="X2EXVFLk4f0aDlaed467-36" value="" style="ellipse;whiteSpace=wrap;html=1;aspect=fixed;" parent="1" vertex="1">
          <mxGeometry x="726" y="340" width="20" height="20" as="geometry" />
        </mxCell>
        <mxCell id="X2EXVFLk4f0aDlaed467-39" value="" style="ellipse;whiteSpace=wrap;html=1;aspect=fixed;" parent="1" vertex="1">
          <mxGeometry x="60" y="-58" width="20" height="20" as="geometry" />
        </mxCell>
        <mxCell id="X2EXVFLk4f0aDlaed467-40" value="" style="ellipse;whiteSpace=wrap;html=1;aspect=fixed;" parent="1" vertex="1">
          <mxGeometry x="60" y="123" width="20" height="20" as="geometry" />
        </mxCell>
        <mxCell id="X2EXVFLk4f0aDlaed467-42" value="" style="ellipse;whiteSpace=wrap;html=1;aspect=fixed;" parent="1" vertex="1">
          <mxGeometry x="539" y="340" width="20" height="20" as="geometry" />
        </mxCell>
        <mxCell id="X2EXVFLk4f0aDlaed467-44" value="" style="endArrow=none;html=1;strokeColor=#d6b656;strokeWidth=12;endSize=10;endFill=0;fillColor=#fff2cc;dashed=1;" parent="1" edge="1">
          <mxGeometry width="50" height="50" relative="1" as="geometry">
            <mxPoint x="70" y="397" as="sourcePoint" />
            <mxPoint x="770" as="targetPoint" />
            <Array as="points">
              <mxPoint x="310" y="370" />
              <mxPoint x="380" y="220" />
              <mxPoint x="390" y="40" />
              <mxPoint x="500" y="-30" />
            </Array>
          </mxGeometry>
        </mxCell>
        <mxCell id="X2EXVFLk4f0aDlaed467-47" value="" style="ellipse;whiteSpace=wrap;html=1;aspect=fixed;fillColor=#D6B656;strokeColor=#0A0904;" parent="1" vertex="1">
          <mxGeometry x="60" y="392" width="12" height="12" as="geometry" />
        </mxCell>
        <mxCell id="X2EXVFLk4f0aDlaed467-49" value="" style="ellipse;whiteSpace=wrap;html=1;aspect=fixed;fillColor=#D6B656;strokeColor=#0A0904;" parent="1" vertex="1">
          <mxGeometry x="300" y="364" width="12" height="12" as="geometry" />
        </mxCell>
        <mxCell id="X2EXVFLk4f0aDlaed467-51" value="" style="ellipse;whiteSpace=wrap;html=1;aspect=fixed;fillColor=#D6B656;strokeColor=#0A0904;" parent="1" vertex="1">
          <mxGeometry x="371" y="223" width="12" height="12" as="geometry" />
        </mxCell>
        <mxCell id="X2EXVFLk4f0aDlaed467-52" value="" style="ellipse;whiteSpace=wrap;html=1;aspect=fixed;fillColor=#D6B656;strokeColor=#0A0904;" parent="1" vertex="1">
          <mxGeometry x="386" y="34" width="12" height="12" as="geometry" />
        </mxCell>
        <mxCell id="X2EXVFLk4f0aDlaed467-53" value="" style="ellipse;whiteSpace=wrap;html=1;aspect=fixed;fillColor=#D6B656;strokeColor=#0A0904;" parent="1" vertex="1">
          <mxGeometry x="501" y="-35" width="12" height="12" as="geometry" />
        </mxCell>
        <mxCell id="X2EXVFLk4f0aDlaed467-54" value="" style="ellipse;whiteSpace=wrap;html=1;aspect=fixed;fillColor=#D6B656;strokeColor=#0A0904;" parent="1" vertex="1">
          <mxGeometry x="753" y="-8" width="12" height="12" as="geometry" />
        </mxCell>
        <mxCell id="X2EXVFLk4f0aDlaed467-55" value="" style="endArrow=none;html=1;strokeWidth=12;endSize=10;endFill=0;fillColor=#fff2cc;strokeColor=#4DD2DB;" parent="1" edge="1">
          <mxGeometry width="50" height="50" relative="1" as="geometry">
            <mxPoint x="70" y="351" as="sourcePoint" />
            <mxPoint x="740" y="-50" as="targetPoint" />
            <Array as="points">
              <mxPoint x="360" y="351" />
              <mxPoint x="360" y="130" />
              <mxPoint x="360" y="-50" />
            </Array>
          </mxGeometry>
        </mxCell>
        <mxCell id="X2EXVFLk4f0aDlaed467-38" value="" style="ellipse;whiteSpace=wrap;html=1;aspect=fixed;fillColor=#60a917;strokeColor=#2D7600;fontColor=#ffffff;" parent="1" vertex="1">
          <mxGeometry x="351" y="-59" width="20" height="20" as="geometry" />
        </mxCell>
        <mxCell id="X2EXVFLk4f0aDlaed467-37" value="" style="ellipse;whiteSpace=wrap;html=1;aspect=fixed;fillColor=#60a917;strokeColor=#2D7600;fontColor=#ffffff;" parent="1" vertex="1">
          <mxGeometry x="726" y="-59" width="20" height="20" as="geometry" />
        </mxCell>
        <mxCell id="X2EXVFLk4f0aDlaed467-4" value="" style="ellipse;whiteSpace=wrap;html=1;aspect=fixed;fillColor=#60a917;strokeColor=#2D7600;fontColor=#ffffff;" parent="1" vertex="1">
          <mxGeometry x="350" y="120" width="20" height="20" as="geometry" />
        </mxCell>
        <mxCell id="X2EXVFLk4f0aDlaed467-16" value="" style="ellipse;whiteSpace=wrap;html=1;aspect=fixed;fillColor=#60a917;strokeColor=#2D7600;fontColor=#ffffff;" parent="1" vertex="1">
          <mxGeometry x="350" y="340" width="20" height="20" as="geometry" />
        </mxCell>
        <mxCell id="X2EXVFLk4f0aDlaed467-41" value="" style="ellipse;whiteSpace=wrap;html=1;aspect=fixed;fillColor=#60a917;strokeColor=#2D7600;fontColor=#ffffff;" parent="1" vertex="1">
          <mxGeometry x="60" y="340" width="20" height="20" as="geometry" />
        </mxCell>
        <mxCell id="X2EXVFLk4f0aDlaed467-59" value="" style="ellipse;whiteSpace=wrap;html=1;aspect=fixed;" parent="1" vertex="1">
          <mxGeometry x="539" y="120" width="20" height="20" as="geometry" />
        </mxCell>
      </root>
    </mxGraphModel>
  </diagram>
</mxfile>
